<svg width="30" height="31" viewBox="0 0 30 31" fill="none" xmlns="http://www.w3.org/2000/svg">
<path d="M11.25 15.2197L13.75 17.7197L19.375 12.0947M22.3765 6.46786C22.6339 7.09039 23.1279 7.58522 23.7501 7.84357L25.9315 8.7472C26.5541 9.00508 27.0487 9.49972 27.3066 10.1223C27.5645 10.7449 27.5645 11.4444 27.3066 12.067L26.4036 14.247C26.1457 14.8698 26.1453 15.5701 26.4045 16.1926L27.3058 18.372C27.4337 18.6803 27.4995 19.0109 27.4996 19.3447C27.4996 19.6785 27.4339 20.009 27.3062 20.3174C27.1784 20.6258 26.9912 20.906 26.7551 21.142C26.519 21.378 26.2388 21.5652 25.9304 21.6928L23.7504 22.5958C23.1279 22.8532 22.6331 23.3473 22.3748 23.9694L21.4712 26.151C21.2133 26.7736 20.7187 27.2682 20.0961 27.5261C19.4736 27.784 18.7741 27.784 18.1515 27.5261L15.9716 26.6231C15.349 26.3659 14.6498 26.3664 14.0276 26.6246L11.8461 27.5269C11.2239 27.7842 10.525 27.784 9.90296 27.5263C9.28091 27.2686 8.78657 26.7746 8.52852 26.1527L7.62465 23.9705C7.36725 23.3479 6.87318 22.8531 6.25106 22.5948L4.06958 21.6911C3.44729 21.4334 2.95282 20.939 2.69485 20.3168C2.43689 19.6946 2.43654 18.9954 2.69388 18.3729L3.59683 16.1929C3.85407 15.5703 3.85354 14.871 3.59537 14.2488L2.69372 12.0657C2.56588 11.7574 2.50005 11.4268 2.5 11.093C2.49995 10.7592 2.56567 10.4287 2.6934 10.1203C2.82114 9.81187 3.00839 9.53167 3.24446 9.29567C3.48053 9.05967 3.76078 8.8725 4.06921 8.74486L6.24912 7.84187C6.87109 7.58469 7.36561 7.09123 7.62413 6.4698L8.52773 4.28824C8.7856 3.66566 9.28022 3.17102 9.90278 2.91314C10.5253 2.65526 11.2248 2.65526 11.8474 2.91314L14.0273 3.81612C14.6499 4.07337 15.3491 4.07284 15.9713 3.81466L18.1537 2.91454C18.7762 2.6568 19.4755 2.65685 20.098 2.91468C20.7204 3.17252 21.215 3.66701 21.4729 4.28943L22.3767 6.47164L22.3765 6.46786Z" stroke="white" stroke-width="2" stroke-linecap="round" stroke-linejoin="round"/>
</svg>
