<svg width="24" height="25" viewBox="0 0 24 25" fill="none" xmlns="http://www.w3.org/2000/svg">
<path d="M20.4375 13C20.7136 13 20.9375 12.7761 20.9375 12.5C20.9375 12.2239 20.7136 12 20.4375 12V13ZM21 12.5H20.5C20.5 17.1944 16.6944 21 12 21V21.5V22C17.2467 22 21.5 17.7467 21.5 12.5H21ZM12 21.5V21C7.30558 21 3.5 17.1944 3.5 12.5H3H2.5C2.5 17.7467 6.75329 22 12 22V21.5ZM3 12.5H3.5C3.5 7.80558 7.30558 4 12 4V3.5V3C6.75329 3 2.5 7.25329 2.5 12.5H3ZM12 3.5V4C16.6944 4 20.5 7.80558 20.5 12.5H21H21.5C21.5 7.25329 17.2467 3 12 3V3.5ZM12 21.5V21C11.6218 21 11.222 20.8269 10.8149 20.4333C10.4053 20.0373 10.0136 19.4402 9.67385 18.6636C8.99494 17.1118 8.5625 14.933 8.5625 12.5H8.0625H7.5625C7.5625 15.0376 8.0115 17.3588 8.75769 19.0644C9.13046 19.9164 9.58723 20.6373 10.1198 21.1522C10.6548 21.6694 11.2909 22 12 22V21.5ZM8.0625 12.5H8.5625C8.5625 10.067 8.99494 7.88824 9.67385 6.33645C10.0136 5.55981 10.4053 4.9627 10.8149 4.56674C11.222 4.1731 11.6218 4 12 4V3.5V3C11.2909 3 10.6548 3.33058 10.1198 3.84779C9.58723 4.36268 9.13046 5.08359 8.75769 5.93563C8.0115 7.64119 7.5625 9.96244 7.5625 12.5H8.0625ZM12 21.5V22C12.7091 22 13.3452 21.6694 13.8802 21.1522C14.4128 20.6373 14.8695 19.9164 15.2423 19.0644C15.9885 17.3588 16.4375 15.0376 16.4375 12.5H15.9375H15.4375C15.4375 14.933 15.0051 17.1118 14.3262 18.6636C13.9864 19.4402 13.5947 20.0373 13.1851 20.4333C12.778 20.8269 12.3782 21 12 21V21.5ZM15.9375 12.5H16.4375C16.4375 9.96244 15.9885 7.64119 15.2423 5.93563C14.8695 5.08359 14.4128 4.36268 13.8802 3.84779C13.3452 3.33058 12.7091 3 12 3V3.5V4C12.3782 4 12.778 4.1731 13.1851 4.56674C13.5947 4.9627 13.9864 5.55981 14.3262 6.33645C15.0051 7.88824 15.4375 10.067 15.4375 12.5H15.9375ZM3 12.5L3 13L20.4375 13V12.5V12L3 12L3 12.5Z" fill="black"/>
</svg>
